<svg xmlns="http://www.w3.org/2000/svg" width="229.25813mm" height="129.93628mm" viewBox="0 0 229.25813 129.93628"><path d="M502.868 501.613c2.176-3.539 3.606-7.93 4.985-12.176 1.55-4.777 3.164-9.715 5.863-13.73 10-15.895 23.242-19.996 35.629-22.446-12.969 2.172-27.594 6.282-37.84 22.583-5.047 7.492-6.145 18.25-10.844 25.89-2.074 3.38-6.539 10.426-17.066 11.172 6.515.16 13.719-2.262 19.273-11.293" style="fill:#70bd42;fill-opacity:1;fill-rule:nonzero;stroke:none" transform="translate(-878.883 -850.216) scale(1.90453)"/><path d="M567.005 451.004c-16.055 4.726-37.203 2.492-51.598 25.37-5.043 7.5-6.136 18.255-10.84 25.9-3.062 4.98-12.226 18.57-35.87 7.655-.438-.222-2.786-1.445-3.872-2.78-.844-1.04-1.11-1.665-1.11-1.665l-2.245 1.527 2.386 1.27c.997.605 2.598 1.52 4.653 2.469l.008.004c7.117 3.293 19.543 6.984 30.289-.43l.078-.062c12.895-2.813 35.3 4.129 46.777-4.77 16.094-11.031 35.59-46.281 36.184-59.074-6.758 2.832-12.184 3.894-14.84 4.586" style="fill:#70bd42;fill-opacity:1;fill-rule:nonzero;stroke:none" transform="translate(-878.883 -850.216) scale(1.90453)"/><path d="M529.075 491.187c-4.008 3.133-7.289 5.535-10.062 7.442 7.855-.086 26.355 4.23 27.62 4.535.048.012.013.09.013.09s-25.485-4.23-29.047-2.75c-2.543 1.054-3.985 4.613.023 9.117.016.023-.125 0-.105.023 0 0-4.84-4.164-4.204-7.34-4.695 2.801-7.71 4.016-11.417 6.11 15.167-9.145 41.933-31.012 54.855-40.586-11.367 10.277-17.05 15.445-27.676 23.36" style="fill:#fff;fill-opacity:1;fill-rule:nonzero;stroke:none" transform="translate(-878.883 -850.216) scale(1.90453)"/></svg>